<?xml version="1.0" encoding="UTF-8" standalone="no"?>
<svg
   xmlns:dc="http://purl.org/dc/elements/1.1/"
   xmlns:cc="http://creativecommons.org/ns#"
   xmlns:rdf="http://www.w3.org/1999/02/22-rdf-syntax-ns#"
   xmlns:svg="http://www.w3.org/2000/svg"
   xmlns="http://www.w3.org/2000/svg"
   viewBox="0 0 2666.6667 2666.6667"
   height="2666.6667"
   width="2666.6667"
   xml:space="preserve"
   id="svg2"
   version="1.1"><metadata
     id="metadata8"><rdf:RDF><cc:Work
         rdf:about=""><dc:format>image/svg+xml</dc:format><dc:type
           rdf:resource="http://purl.org/dc/dcmitype/StillImage" /><dc:title></dc:title></cc:Work></rdf:RDF></metadata><defs
     id="defs6"><clipPath
       id="clipPath628"
       clipPathUnits="userSpaceOnUse"><path
         id="path626"
         d="m 3881.35,2322.7 v 160.1 c 460.72,0 657.43,499.5 865.68,1028.3 111.33,282.7 226.46,575 387.98,796.9 190.93,262.3 421.51,389.8 704.92,389.8 V 4537.7 C 5323.4,4537.7 5115.8,4010.5 4896.02,3452.4 4677.29,2897 4451.1,2322.7 3881.35,2322.7 Z" /></clipPath><linearGradient
       id="linearGradient636"
       spreadMethod="pad"
       gradientTransform="matrix(1958.57,0,0,-1958.57,3881.35,3510.2)"
       gradientUnits="userSpaceOnUse"
       y2="0"
       x2="1"
       y1="0"
       x1="0"><stop
         id="stop630"
         offset="0"
         style="stop-opacity:1;stop-color:#356ebf" /><stop
         id="stop632"
         offset="0.521505"
         style="stop-opacity:1;stop-color:#9b165e" /><stop
         id="stop634"
         offset="1"
         style="stop-opacity:1;stop-color:#ec1e27" /></linearGradient><clipPath
       id="clipPath732"
       clipPathUnits="userSpaceOnUse"><path
         id="path730"
         d="m 5291.58,6818.7 c -401.29,0 -779.38,121.6 -1064.62,342.4 -291.31,225.4 -451.75,527.1 -451.75,849.3 0,322.3 160.44,623.9 451.75,849.4 285.24,220.8 663.33,342.3 1064.62,342.3 V 9042 c -747.83,0 -1356.24,-462.7 -1356.24,-1031.6 0,-568.8 608.41,-1031.6 1356.24,-1031.6 z" /></clipPath><linearGradient
       id="linearGradient740"
       spreadMethod="pad"
       gradientTransform="matrix(-1.042e-4,2383.44,2383.44,1.042e-4,4533.4,6818.7)"
       gradientUnits="userSpaceOnUse"
       y2="0"
       x2="1"
       y1="0"
       x1="0"><stop
         id="stop734"
         offset="0"
         style="stop-opacity:1;stop-color:#356ebf" /><stop
         id="stop736"
         offset="0.521505"
         style="stop-opacity:1;stop-color:#9b165e" /><stop
         id="stop738"
         offset="1"
         style="stop-opacity:1;stop-color:#ec1e27" /></linearGradient></defs><g
     transform="matrix(1.3333333,0,0,-1.3333333,0,2666.6667)"
     id="g10"><g
       transform="scale(0.1)"
       id="g12"><path
         id="path28"
         style="fill:#747577;fill-opacity:1;fill-rule:nonzero;stroke:none;stroke-width:2.27565408"
         d="m 12397.661,3499.7843 h 2764.51 v 1509.4414 h -2764.51 V 3499.7843" /><path
         id="path30"
         style="fill:#484d51;fill-opacity:1;fill-rule:nonzero;stroke:none;stroke-width:2.27565408"
         d="m 12397.661,4261.9009 v -762.1166 h 2764.51 v 762.1166 h -2764.51" /><path
         id="path32"
         style="fill:#747577;fill-opacity:1;fill-rule:nonzero;stroke:none;stroke-width:2.27565408"
         d="m 16671.635,3499.7843 c 0,-833.5721 -675.824,-1509.4414 -1509.464,-1509.4414 -833.663,0 -1509.464,675.8693 -1509.464,1509.4414 0,833.7997 675.801,1509.4414 1509.464,1509.4414 833.64,0 1509.464,-675.6417 1509.464,-1509.4414" /><path
         id="path34"
         style="fill:#505559;fill-opacity:1;fill-rule:nonzero;stroke:none;stroke-width:2.27565408"
         d="m 13652.707,3499.5568 c 0.159,-833.5722 675.915,-1509.2139 1509.464,-1509.2139 833.549,0 1509.282,675.6417 1509.464,1509.2139 h -3018.928" /><path
         id="path36"
         style="fill:#292626;fill-opacity:1;fill-rule:nonzero;stroke:none;stroke-width:2.27565408"
         d="m 16054.136,3499.7843 c 0,-492.4515 -399.354,-891.8288 -891.965,-891.8288 -492.611,0 -891.965,399.3773 -891.965,891.8288 0,492.6792 399.354,892.0565 891.965,892.0565 492.611,0 891.965,-399.3773 891.965,-892.0565" /><path
         id="path38"
         style="fill:#333232;fill-opacity:1;fill-rule:nonzero;stroke:none;stroke-width:2.27565408"
         d="m 15459.462,3499.7843 c 0,-164.0746 -133.103,-297.2004 -297.291,-297.2004 -164.211,0 -297.292,133.1258 -297.292,297.2004 0,164.3023 133.081,297.428 297.292,297.428 164.188,0 297.291,-133.1257 297.291,-297.428" /><path
         id="path40"
         style="fill:#292827;fill-opacity:1;fill-rule:nonzero;stroke:none;stroke-width:2.27565408"
         d="m 11639.436,3497.9638 c -63.15,0 -114.352,33.6797 -114.352,75.3242 v 0 c 0,41.4169 51.202,75.3241 114.352,75.3241 h 343.077 c 63.15,0 114.352,-33.9072 114.352,-75.3241 v 0 c 0,-41.6445 -51.202,-75.3242 -114.352,-75.3242 h -343.077" /><path
         id="path42"
         style="fill:#292827;fill-opacity:1;fill-rule:nonzero;stroke:none;stroke-width:2.27565408"
         d="m 11639.436,3217.8308 c -63.15,0 -114.352,33.6797 -114.352,75.3241 v 0 c 0,41.4169 51.202,75.0966 114.352,75.0966 h 343.077 c 63.15,0 114.352,-33.6797 114.352,-75.0966 v 0 c 0,-41.6444 -51.202,-75.3241 -114.352,-75.3241 h -343.077" /><path
         id="path44"
         style="fill:#292827;fill-opacity:1;fill-rule:nonzero;stroke:none;stroke-width:2.27565408"
         d="m 11639.436,1832.185 c -63.15,0 -114.352,33.6796 -114.352,75.3241 v 0 c 0,41.4169 51.202,75.0966 114.352,75.0966 h 343.077 c 63.15,0 114.352,-33.6797 114.352,-75.0966 v 0 c 0,-41.6445 -51.202,-75.3241 -114.352,-75.3241 h -343.077" /><path
         id="path46"
         style="fill:#292827;fill-opacity:1;fill-rule:nonzero;stroke:none;stroke-width:2.27565408"
         d="m 11639.436,1552.0519 c -63.15,0 -114.352,33.6797 -114.352,75.0966 v 0 c 0,41.6445 51.202,75.3242 114.352,75.3242 h 343.077 c 63.15,0 114.352,-33.6797 114.352,-75.3242 v 0 c 0,-41.4169 -51.202,-75.0966 -114.352,-75.0966 h -343.077" /><g
         transform="matrix(2.3936696,0,0,2.3936696,-1747.6462,-23958.714)"
         id="g48"><path
           id="path50"
           style="fill:#f5777a;fill-opacity:1;fill-rule:nonzero;stroke:none"
           d="M 1302.46,15855.7 H 2797.84 V 16300 H 1302.46 v -444.3" /></g><g
         transform="matrix(2.4003372,0,0,2.4003372,-1747.6462,-23958.714)"
         id="g52"><path
           id="path54"
           style="fill:#882a43;fill-opacity:1;fill-rule:nonzero;stroke:none"
           d="m 2567.36,15766.4 h 222.71 v 533.6 h -222.71 v -533.6" /></g><g
         transform="matrix(2.361105,0,0,2.361105,-1747.6462,-23958.714)"
         id="g56"><path
           id="path58"
           style="fill:#f2575c;fill-opacity:1;fill-rule:nonzero;stroke:none"
           d="m 2836.43,16300 v -225.6 H 1320.42 v 225.6 h 1516.01" /></g><g
         transform="matrix(2.361105,0,0,2.361105,-1747.6462,-23958.714)"
         id="g60"><path
           id="path62"
           style="fill:#681c30;fill-opacity:1;fill-rule:nonzero;stroke:none"
           d="m 2836.43,16300 v -271.6 h -226.41 v 271.6 h 226.41" /></g><path
         id="path64"
         style="fill:#3567a4;fill-opacity:1;fill-rule:nonzero;stroke:none;stroke-width:2.27565408"
         d="M 1370,1610.9914 H 4949.4447 V 2674.6321 H 1370 V 1610.9914" /><path
         id="path66"
         style="fill:#496d89;fill-opacity:1;fill-rule:nonzero;stroke:none;stroke-width:2.27565408"
         d="m 4414.848,1502.4427 h 534.5967 V 2783.1808 H 4414.848 V 1502.4427" /><path
         id="path68"
         style="fill:#265282;fill-opacity:1;fill-rule:nonzero;stroke:none;stroke-width:2.27565408"
         d="m 1370,2142.3566 v -531.3652 h 3579.4447 v 531.3652 H 1370" /><path
         id="path70"
         style="fill:#315066;fill-opacity:1;fill-rule:nonzero;stroke:none;stroke-width:2.27565408"
         d="m 4414.848,2142.3566 v -639.9139 h 534.5967 v 639.9139 H 4414.848" /><g
         transform="matrix(2.534305,0,0,2.534305,-1747.6462,-23958.714)"
         id="g72"><path
           id="path74"
           style="fill:#535456;fill-opacity:1;fill-rule:nonzero;stroke:none"
           d="m 4689.34,15632.2 h -934.83 v 667.8 h 934.83 v -667.8" /></g><g
         transform="matrix(2.534305,0,0,2.534305,-1747.6462,-23958.714)"
         id="g76"><path
           id="path78"
           style="fill:#373032;fill-opacity:1;fill-rule:nonzero;stroke:none"
           d="m 4222.29,16300 h -467.78 v -667.8 h 467.78 v 667.8" /></g><g
         transform="matrix(2.4304669,0,0,2.4304669,-1747.6462,-23958.714)"
         id="g112"><path
           id="path114"
           style="fill:#593c37;fill-opacity:1;fill-rule:nonzero;stroke:none"
           d="m 6049.13,10297 c 0,-62.9 -52.37,-113.8 -116.96,-113.8 H 2872.44 c -64.6,0 -116.96,50.9 -116.96,113.8 v 5889.2 c 0,62.9 52.36,113.8 116.96,113.8 h 3059.73 c 64.59,0 116.96,-50.9 116.96,-113.8 V 10297" /></g><path
         id="path116"
         style="fill:#171614;fill-opacity:1;fill-rule:nonzero;stroke:none;stroke-width:2.27565408"
         d="m 11156.974,4633.7428 v 234.6199 H 6747.0067 V 3535.5121 c 0,-252.5976 204.8088,-457.4065 457.452,-457.4065 h 3495.0863 c 252.643,0 457.429,204.8089 457.429,457.4065 v 40.2791 h 1002.79 v 1057.9516 h -1002.79" /><g
         transform="matrix(2.3690698,0,0,2.3690698,-1747.6462,-23958.714)"
         id="g118"><path
           id="path120"
           style="fill:#171614;fill-opacity:1;fill-rule:nonzero;stroke:none"
           d="m 3513.13,16143.1 c 0,-86.6 -70.24,-156.9 -156.87,-156.9 -86.65,0 -156.89,70.3 -156.89,156.9 0,86.7 70.24,156.9 156.89,156.9 86.63,0 156.87,-70.2 156.87,-156.9" /></g><g
         transform="matrix(2.3634717,0,0,2.3634717,-1747.6462,-23958.714)"
         id="g122"><path
           id="path124"
           style="fill:#302f2f;fill-opacity:1;fill-rule:nonzero;stroke:none"
           d="m 3482.76,16181.5 c 0,-65.5 -53.06,-118.6 -118.53,-118.6 -65.48,0 -118.55,53.1 -118.55,118.6 0,65.4 53.07,118.5 118.55,118.5 65.47,0 118.53,-53.1 118.53,-118.5" /></g><g
         transform="matrix(2.3690698,0,0,2.3690698,-1747.6462,-23958.714)"
         id="g126"><path
           id="path128"
           style="fill:#171614;fill-opacity:1;fill-rule:nonzero;stroke:none"
           d="m 3838.97,16143.1 c 0,-86.6 -70.25,-156.9 -156.89,-156.9 -86.64,0 -156.87,70.3 -156.87,156.9 0,86.7 70.23,156.9 156.87,156.9 86.64,0 156.89,-70.2 156.89,-156.9" /></g><g
         transform="matrix(2.3634717,0,0,2.3634717,-1747.6462,-23958.714)"
         id="g130"><path
           id="path132"
           style="fill:#302f2f;fill-opacity:1;fill-rule:nonzero;stroke:none"
           d="m 3809.37,16181.5 c 0,-65.5 -53.07,-118.6 -118.55,-118.6 -65.47,0 -118.53,53.1 -118.53,118.6 0,65.4 53.06,118.5 118.53,118.5 65.48,0 118.55,-53.1 118.55,-118.5" /></g><g
         transform="matrix(2.3690698,0,0,2.3690698,-1747.6462,-23958.714)"
         id="g134"><path
           id="path136"
           style="fill:#171614;fill-opacity:1;fill-rule:nonzero;stroke:none"
           d="m 4164.8,16143.1 c 0,-86.6 -70.23,-156.9 -156.89,-156.9 -86.63,0 -156.87,70.3 -156.87,156.9 0,86.7 70.24,156.9 156.87,156.9 86.66,0 156.89,-70.2 156.89,-156.9" /></g><g
         transform="matrix(2.3634717,0,0,2.3634717,-1747.6462,-23958.714)"
         id="g138"><path
           id="path140"
           style="fill:#302f2f;fill-opacity:1;fill-rule:nonzero;stroke:none"
           d="m 4135.99,16181.5 c 0,-65.5 -53.09,-118.6 -118.56,-118.6 -65.46,0 -118.54,53.1 -118.54,118.6 0,65.4 53.08,118.5 118.54,118.5 65.47,0 118.56,-53.1 118.56,-118.5" /></g><g
         transform="matrix(2.3690698,0,0,2.3690698,-1747.6462,-23958.714)"
         id="g142"><path
           id="path144"
           style="fill:#171614;fill-opacity:1;fill-rule:nonzero;stroke:none"
           d="m 4490.63,16143.1 c 0,-86.6 -70.23,-156.9 -156.88,-156.9 -86.64,0 -156.88,70.3 -156.88,156.9 0,86.7 70.24,156.9 156.88,156.9 86.65,0 156.88,-70.2 156.88,-156.9" /></g><g
         transform="matrix(2.3634717,0,0,2.3634717,-1747.6462,-23958.714)"
         id="g146"><path
           id="path148"
           style="fill:#302f2f;fill-opacity:1;fill-rule:nonzero;stroke:none"
           d="m 4462.59,16181.5 c 0,-65.5 -53.08,-118.6 -118.55,-118.6 -65.46,0 -118.55,53.1 -118.55,118.6 0,65.4 53.09,118.5 118.55,118.5 65.47,0 118.55,-53.1 118.55,-118.5" /></g><g
         transform="matrix(2.3690698,0,0,2.3690698,-1747.6462,-23958.714)"
         id="g150"><path
           id="path152"
           style="fill:#171614;fill-opacity:1;fill-rule:nonzero;stroke:none"
           d="m 4816.46,16143.1 c 0,-86.6 -70.24,-156.9 -156.88,-156.9 -86.64,0 -156.88,70.3 -156.88,156.9 0,86.7 70.24,156.9 156.88,156.9 86.64,0 156.88,-70.2 156.88,-156.9" /></g><g
         transform="matrix(2.3634717,0,0,2.3634717,-1747.6462,-23958.714)"
         id="g154"><path
           id="path156"
           style="fill:#302f2f;fill-opacity:1;fill-rule:nonzero;stroke:none"
           d="m 4789.19,16181.5 c 0,-65.5 -53.07,-118.6 -118.54,-118.6 -65.47,0 -118.55,53.1 -118.55,118.6 0,65.4 53.08,118.5 118.55,118.5 65.47,0 118.54,-53.1 118.54,-118.5" /></g><g
         transform="matrix(2.3690698,0,0,2.3690698,-1747.6462,-23958.714)"
         id="g158"><path
           id="path160"
           style="fill:#171614;fill-opacity:1;fill-rule:nonzero;stroke:none"
           d="m 5142.3,16143.1 c 0,-86.6 -70.24,-156.9 -156.88,-156.9 -86.65,0 -156.88,70.3 -156.88,156.9 0,86.7 70.23,156.9 156.88,156.9 86.64,0 156.88,-70.2 156.88,-156.9" /></g><g
         transform="matrix(2.3634717,0,0,2.3634717,-1747.6462,-23958.714)"
         id="g162"><path
           id="path164"
           style="fill:#302f2f;fill-opacity:1;fill-rule:nonzero;stroke:none"
           d="m 5115.8,16181.5 c 0,-65.5 -53.07,-118.6 -118.55,-118.6 -65.47,0 -118.53,53.1 -118.53,118.6 0,65.4 53.06,118.5 118.53,118.5 65.48,0 118.55,-53.1 118.55,-118.5" /></g><g
         transform="matrix(2.3690698,0,0,2.3690698,-1747.6462,-23958.714)"
         id="g166"><path
           id="path168"
           style="fill:#171614;fill-opacity:1;fill-rule:nonzero;stroke:none"
           d="m 5468.13,16143.1 c 0,-86.6 -70.24,-156.9 -156.88,-156.9 -86.64,0 -156.88,70.3 -156.88,156.9 0,86.7 70.24,156.9 156.88,156.9 86.64,0 156.88,-70.2 156.88,-156.9" /></g><g
         transform="matrix(2.3634717,0,0,2.3634717,-1747.6462,-23958.714)"
         id="g170"><path
           id="path172"
           style="fill:#302f2f;fill-opacity:1;fill-rule:nonzero;stroke:none"
           d="m 5442.41,16181.5 c 0,-65.5 -53.08,-118.6 -118.55,-118.6 -65.47,0 -118.54,53.1 -118.54,118.6 0,65.4 53.07,118.5 118.54,118.5 65.47,0 118.55,-53.1 118.55,-118.5" /></g><g
         transform="matrix(2.3690698,0,0,2.3690698,-1747.6462,-23958.714)"
         id="g174"><path
           id="path176"
           style="fill:#171614;fill-opacity:1;fill-rule:nonzero;stroke:none"
           d="m 5793.96,16143.1 c 0,-86.6 -70.24,-156.9 -156.88,-156.9 -86.64,0 -156.88,70.3 -156.88,156.9 0,86.7 70.24,156.9 156.88,156.9 86.64,0 156.88,-70.2 156.88,-156.9" /></g><g
         transform="matrix(2.3634717,0,0,2.3634717,-1747.6462,-23958.714)"
         id="g178"><path
           id="path180"
           style="fill:#302f2f;fill-opacity:1;fill-rule:nonzero;stroke:none"
           d="m 5769.01,16181.5 c 0,-65.5 -53.07,-118.6 -118.54,-118.6 -65.46,0 -118.55,53.1 -118.55,118.6 0,65.4 53.09,118.5 118.55,118.5 65.47,0 118.54,-53.1 118.54,-118.5" /></g><g
         transform="matrix(2.3690698,0,0,2.3690698,-1747.6462,-23958.714)"
         id="g182"><path
           id="path184"
           style="fill:#171614;fill-opacity:1;fill-rule:nonzero;stroke:none"
           d="m 6119.8,16143.1 c 0,-86.6 -70.24,-156.9 -156.88,-156.9 -86.66,0 -156.88,70.3 -156.88,156.9 0,86.7 70.22,156.9 156.88,156.9 86.64,0 156.88,-70.2 156.88,-156.9" /></g><g
         transform="matrix(2.3634717,0,0,2.3634717,-1747.6462,-23958.714)"
         id="g186"><path
           id="path188"
           style="fill:#302f2f;fill-opacity:1;fill-rule:nonzero;stroke:none"
           d="m 6095.62,16181.5 c 0,-65.5 -53.07,-118.6 -118.54,-118.6 -65.47,0 -118.54,53.1 -118.54,118.6 0,65.4 53.07,118.5 118.54,118.5 65.47,0 118.54,-53.1 118.54,-118.5" /></g><g
         transform="matrix(2.3276756,0,0,2.3276756,-1747.6462,-23958.714)"
         id="g190"><path
           id="path192"
           style="fill:#171614;fill-opacity:1;fill-rule:nonzero;stroke:none"
           d="m 3408.97,16140.3 c 0,-88.2 -71.49,-159.7 -159.67,-159.7 -88.18,0 -159.66,71.5 -159.66,159.7 0,88.2 71.48,159.7 159.66,159.7 88.18,0 159.67,-71.5 159.67,-159.7" /></g><g
         transform="matrix(2.3220775,0,0,2.3220775,-1747.6462,-23958.714)"
         id="g194"><path
           id="path196"
           style="fill:#302f2f;fill-opacity:1;fill-rule:nonzero;stroke:none"
           d="m 3377.82,16179.3 c 0,-66.6 -54.02,-120.6 -120.66,-120.6 -66.63,0 -120.66,54 -120.66,120.6 0,66.7 54.03,120.7 120.66,120.7 66.64,0 120.66,-54 120.66,-120.7" /></g><g
         transform="matrix(2.3276756,0,0,2.3276756,-1747.6462,-23958.714)"
         id="g198"><path
           id="path200"
           style="fill:#171614;fill-opacity:1;fill-rule:nonzero;stroke:none"
           d="m 3740.61,16140.3 c 0,-88.2 -71.49,-159.7 -159.67,-159.7 -88.19,0 -159.68,71.5 -159.68,159.7 0,88.2 71.49,159.7 159.68,159.7 88.18,0 159.67,-71.5 159.67,-159.7" /></g><g
         transform="matrix(2.3220775,0,0,2.3220775,-1747.6462,-23958.714)"
         id="g202"><path
           id="path204"
           style="fill:#302f2f;fill-opacity:1;fill-rule:nonzero;stroke:none"
           d="m 3710.25,16179.3 c 0,-66.6 -54.02,-120.6 -120.66,-120.6 -66.64,0 -120.65,54 -120.65,120.6 0,66.7 54.01,120.7 120.65,120.7 66.64,0 120.66,-54 120.66,-120.7" /></g><g
         transform="matrix(2.3276756,0,0,2.3276756,-1747.6462,-23958.714)"
         id="g206"><path
           id="path208"
           style="fill:#171614;fill-opacity:1;fill-rule:nonzero;stroke:none"
           d="m 4072.24,16140.3 c 0,-88.2 -71.5,-159.7 -159.68,-159.7 -88.19,0 -159.67,71.5 -159.67,159.7 0,88.2 71.48,159.7 159.67,159.7 88.18,0 159.68,-71.5 159.68,-159.7" /></g><g
         transform="matrix(2.3220775,0,0,2.3220775,-1747.6462,-23958.714)"
         id="g210"><path
           id="path212"
           style="fill:#302f2f;fill-opacity:1;fill-rule:nonzero;stroke:none"
           d="m 4042.67,16179.3 c 0,-66.6 -54.01,-120.6 -120.65,-120.6 -66.64,0 -120.66,54 -120.66,120.6 0,66.7 54.02,120.7 120.66,120.7 66.64,0 120.65,-54 120.65,-120.7" /></g><g
         transform="matrix(2.3276756,0,0,2.3276756,-1747.6462,-23958.714)"
         id="g214"><path
           id="path216"
           style="fill:#171614;fill-opacity:1;fill-rule:nonzero;stroke:none"
           d="m 4403.86,16140.3 c 0,-88.2 -71.49,-159.7 -159.68,-159.7 -88.18,0 -159.67,71.5 -159.67,159.7 0,88.2 71.49,159.7 159.67,159.7 88.19,0 159.68,-71.5 159.68,-159.7" /></g><g
         transform="matrix(2.3220775,0,0,2.3220775,-1747.6462,-23958.714)"
         id="g218"><path
           id="path220"
           style="fill:#302f2f;fill-opacity:1;fill-rule:nonzero;stroke:none"
           d="m 4375.1,16179.3 c 0,-66.6 -54.02,-120.6 -120.66,-120.6 -66.64,0 -120.65,54 -120.65,120.6 0,66.7 54.01,120.7 120.65,120.7 66.64,0 120.66,-54 120.66,-120.7" /></g><g
         transform="matrix(2.3276756,0,0,2.3276756,-1747.6462,-23958.714)"
         id="g222"><path
           id="path224"
           style="fill:#171614;fill-opacity:1;fill-rule:nonzero;stroke:none"
           d="m 4735.48,16140.3 c 0,-88.2 -71.49,-159.7 -159.67,-159.7 -88.18,0 -159.67,71.5 -159.67,159.7 0,88.2 71.49,159.7 159.67,159.7 88.18,0 159.67,-71.5 159.67,-159.7" /></g><g
         transform="matrix(2.3220775,0,0,2.3220775,-1747.6462,-23958.714)"
         id="g226"><path
           id="path228"
           style="fill:#302f2f;fill-opacity:1;fill-rule:nonzero;stroke:none"
           d="m 4707.53,16179.3 c 0,-66.6 -54.02,-120.6 -120.66,-120.6 -66.63,0 -120.66,54 -120.66,120.6 0,66.7 54.03,120.7 120.66,120.7 66.64,0 120.66,-54 120.66,-120.7" /></g><g
         transform="matrix(2.3276756,0,0,2.3276756,-1747.6462,-23958.714)"
         id="g230"><path
           id="path232"
           style="fill:#171614;fill-opacity:1;fill-rule:nonzero;stroke:none"
           d="m 5067.11,16140.3 c 0,-88.2 -71.49,-159.7 -159.67,-159.7 -88.18,0 -159.67,71.5 -159.67,159.7 0,88.2 71.49,159.7 159.67,159.7 88.18,0 159.67,-71.5 159.67,-159.7" /></g><g
         transform="matrix(2.3220775,0,0,2.3220775,-1747.6462,-23958.714)"
         id="g234"><path
           id="path236"
           style="fill:#302f2f;fill-opacity:1;fill-rule:nonzero;stroke:none"
           d="m 5039.96,16179.3 c 0,-66.6 -54.01,-120.6 -120.66,-120.6 -66.64,0 -120.66,54 -120.66,120.6 0,66.7 54.02,120.7 120.66,120.7 66.65,0 120.66,-54 120.66,-120.7" /></g><g
         transform="matrix(2.3276756,0,0,2.3276756,-1747.6462,-23958.714)"
         id="g238"><path
           id="path240"
           style="fill:#171614;fill-opacity:1;fill-rule:nonzero;stroke:none"
           d="m 5398.74,16140.3 c 0,-88.2 -71.49,-159.7 -159.67,-159.7 -88.19,0 -159.67,71.5 -159.67,159.7 0,88.2 71.48,159.7 159.67,159.7 88.18,0 159.67,-71.5 159.67,-159.7" /></g><g
         transform="matrix(2.3220775,0,0,2.3220775,-1747.6462,-23958.714)"
         id="g242"><path
           id="path244"
           style="fill:#302f2f;fill-opacity:1;fill-rule:nonzero;stroke:none"
           d="m 5372.39,16179.3 c 0,-66.6 -54.01,-120.6 -120.65,-120.6 -66.65,0 -120.66,54 -120.66,120.6 0,66.7 54.01,120.7 120.66,120.7 66.64,0 120.65,-54 120.65,-120.7" /></g><g
         transform="matrix(2.3276756,0,0,2.3276756,-1747.6462,-23958.714)"
         id="g246"><path
           id="path248"
           style="fill:#171614;fill-opacity:1;fill-rule:nonzero;stroke:none"
           d="m 5730.36,16140.3 c 0,-88.2 -71.48,-159.7 -159.66,-159.7 -88.19,0 -159.67,71.5 -159.67,159.7 0,88.2 71.48,159.7 159.67,159.7 88.18,0 159.66,-71.5 159.66,-159.7" /></g><g
         transform="matrix(2.3220775,0,0,2.3220775,-1747.6462,-23958.714)"
         id="g250"><path
           id="path252"
           style="fill:#302f2f;fill-opacity:1;fill-rule:nonzero;stroke:none"
           d="m 5704.82,16179.3 c 0,-66.6 -54.02,-120.6 -120.65,-120.6 -66.65,0 -120.66,54 -120.66,120.6 0,66.7 54.01,120.7 120.66,120.7 66.63,0 120.65,-54 120.65,-120.7" /></g><g
         transform="matrix(2.3276756,0,0,2.3276756,-1747.6462,-23958.714)"
         id="g254"><path
           id="path256"
           style="fill:#171614;fill-opacity:1;fill-rule:nonzero;stroke:none"
           d="m 6062,16140.3 c 0,-88.2 -71.49,-159.7 -159.68,-159.7 -88.18,0 -159.66,71.5 -159.66,159.7 0,88.2 71.48,159.7 159.66,159.7 88.19,0 159.68,-71.5 159.68,-159.7" /></g><g
         transform="matrix(2.3220775,0,0,2.3220775,-1747.6462,-23958.714)"
         id="g258"><path
           id="path260"
           style="fill:#302f2f;fill-opacity:1;fill-rule:nonzero;stroke:none"
           d="m 6037.25,16179.3 c 0,-66.6 -54.02,-120.6 -120.66,-120.6 -66.63,0 -120.65,54 -120.65,120.6 0,66.7 54.02,120.7 120.65,120.7 66.64,0 120.66,-54 120.66,-120.7" /></g><path
         id="path262"
         style="fill:#e78624;fill-opacity:1;fill-rule:nonzero;stroke:none;stroke-width:2.27565408"
         d="m 7197.8593,7554.5449 c 0,0 17.1584,-1766.8179 463.1411,-771.9019 445.96,994.916 789.0376,4854.198 789.0376,4854.198 0,0 258.9467,-2425.3923 394.5074,-2418.5653 133.194,6.8269 254.805,935.9763 254.805,935.9763 0,0 84.2219,-880.4504 276.9243,-1124.6281 204.1717,-258.5143 274.4667,137.222 274.4667,137.222 0,0 210.4752,-1586.8137 480.2996,-1423.6493 140.476,85.1095 176.113,395.5087 176.113,395.5087 0,0 451.717,-2578.7713 1160.743,-2818.8528 328.559,-111.2795 -2368.5466,-372.5246 -2368.5466,-372.5246 l -2184.8556,377.3035 283.3645,2229.9135" /><path
         id="path264"
         style="fill:#dde923;fill-opacity:1;fill-rule:nonzero;stroke:none;stroke-width:2.27565408"
         d="m 7863.4654,4947.3279 c -176.2039,243.7226 230.8423,1390.1972 230.8423,1390.1972 0,0 202.0553,-636.5005 308.7835,-628.7633 83.9944,5.9167 122.453,1135.0963 213.4564,1509.4414 33.3838,137.222 76.2572,575.513 76.2572,575.513 0,0 238.9892,-1342.4084 327.8079,-1364.7098 106.751,-26.6252 263.0201,503.3747 263.0201,503.3747 0,0 171.5616,-892.0565 251.5964,-903.4347 95.0085,-13.654 255.4194,518.394 255.4194,518.394 0,0 811.9534,-1600.0125 682.3324,-1742.2408 -75.029,-82.1512 -2551.2134,61.4426 -2609.5156,142.2283" /><g
         transform="matrix(2.4304669,0,0,2.4304669,-1747.6462,-23958.714)"
         id="g266"><path
           id="path268"
           style="fill:#18b1dc;fill-opacity:1;fill-rule:nonzero;stroke:none"
           d="m 5578.61,14426.9 c 0,-82.8 -68.28,-150 -152.52,-150 H 3378.51 c -84.23,0 -152.51,67.2 -152.51,150 v 1356.3 c 0,82.8 68.28,150 152.51,150 h 2047.58 c 84.24,0 152.52,-67.2 152.52,-150 z m 0,-2197.5 c 0,-82.8 -68.28,-150 -152.52,-150 H 3378.51 c -84.23,0 -152.51,67.2 -152.51,150 v 1356.2 c 0,82.9 68.28,150.1 152.51,150.1 h 2047.58 c 84.24,0 152.52,-67.2 152.52,-150.1 z m 0,-1783.5 c 0,-58.8 -68.28,-106.5 -152.52,-106.5 H 3378.51 c -84.23,0 -152.51,47.7 -152.51,106.5 v 963.2 c 0,58.9 68.28,106.6 152.51,106.6 h 2047.58 c 84.24,0 152.52,-47.7 152.52,-106.6 z M 5932.17,16300 H 2872.44 c -64.6,0 -116.96,-50.9 -116.96,-113.8 V 10297 c 0,-62.9 52.36,-113.8 116.96,-113.8 h 3059.73 c 64.59,0 116.96,50.9 116.96,113.8 v 5889.2 c 0,62.9 -52.37,113.8 -116.96,113.8" /></g><path
         id="path270"
         style="fill:#292827;fill-opacity:1;fill-rule:nonzero;stroke:none;stroke-width:2.27565408"
         d="m 11810.974,1422.1121 c 0,-143.1387 -165.94,-258.9695 -370.704,-258.9695 H 6463.7105 c -204.7179,0 -370.6813,115.8308 -370.6813,258.9695 v 2340.9654 c 0,143.1387 165.9634,258.9695 370.6813,258.9695 H 11440.27 c 204.764,0 370.704,-115.8308 370.704,-258.9695 V 1422.1121" /><path
         id="path272"
         style="fill:#7b979e;fill-opacity:1;fill-rule:nonzero;stroke:none;stroke-width:2.27565408"
         d="m 6843.9723,1982.1506 h -358.3245 v 1236.1353 h 358.3245 V 1982.1506" /><path
         id="path274"
         style="fill:#292827;fill-opacity:1;fill-rule:nonzero;stroke:none;stroke-width:2.27565408"
         d="m 11610.011,8769.7442 c -63.172,0 -114.351,33.6797 -114.351,75.0966 v 0 c 0,41.6445 51.179,75.3242 114.351,75.3242 h 343.078 c 63.149,0 114.352,-33.6797 114.352,-75.3242 v 0 c 0,-41.4169 -51.203,-75.0966 -114.352,-75.0966 h -343.078" /><path
         id="path276"
         style="fill:#292827;fill-opacity:1;fill-rule:nonzero;stroke:none;stroke-width:2.27565408"
         d="m 11610.011,8489.3836 c -63.172,0 -114.351,33.9073 -114.351,75.3242 v 0 c 0,41.6445 51.179,75.3241 114.351,75.3241 h 343.078 c 63.149,0 114.352,-33.6796 114.352,-75.3241 v 0 c 0,-41.4169 -51.203,-75.3242 -114.352,-75.3242 h -343.078" /><path
         id="path278"
         style="fill:#292827;fill-opacity:1;fill-rule:nonzero;stroke:none;stroke-width:2.27565408"
         d="m 11610.011,6074.687 c -63.172,0 -114.351,33.6797 -114.351,75.0966 v 0 c 0,41.6445 51.179,75.3241 114.351,75.3241 h 343.078 c 63.149,0 114.352,-33.6796 114.352,-75.3241 v 0 c 0,-41.4169 -51.203,-75.0966 -114.352,-75.0966 h -343.078" /><path
         id="path280"
         style="fill:#292827;fill-opacity:1;fill-rule:nonzero;stroke:none;stroke-width:2.27565408"
         d="m 11610.011,5794.3264 c -63.172,0 -114.351,33.9073 -114.351,75.3242 v 0 c 0,41.6444 51.179,75.3241 114.351,75.3241 h 343.078 c 63.149,0 114.352,-33.6797 114.352,-75.3241 v 0 c 0,-41.4169 -51.203,-75.3242 -114.352,-75.3242 h -343.078" /><path
         id="path282"
         style="fill:#292827;fill-opacity:1;fill-rule:nonzero;stroke:none;stroke-width:2.27565408"
         d="m 11646.149,3410.3511 c -63.195,0 -114.375,33.6797 -114.375,75.3242 v 0 c 0,41.6444 51.18,75.3241 114.375,75.3241 h 343.055 c 63.172,0 114.374,-33.6797 114.374,-75.3241 v 0 c 0,-41.6445 -51.202,-75.3242 -114.374,-75.3242 h -343.055" /><path
         id="path284"
         style="fill:#292827;fill-opacity:1;fill-rule:nonzero;stroke:none;stroke-width:2.27565408"
         d="m 11646.149,3130.2181 c -63.195,0 -114.375,33.6797 -114.375,75.3241 v 0 c 0,41.417 51.18,75.0966 114.375,75.0966 h 343.055 c 63.172,0 114.374,-33.6796 114.374,-75.0966 v 0 c 0,-41.6444 -51.202,-75.3241 -114.374,-75.3241 h -343.055" /><path
         id="path286"
         style="fill:#292827;fill-opacity:1;fill-rule:nonzero;stroke:none;stroke-width:2.27565408"
         d="m 11646.149,1904.5508 c -63.195,0 -114.375,33.6796 -114.375,75.3241 v 0 c 0,41.6445 51.18,75.3242 114.375,75.3242 h 343.055 c 63.172,0 114.374,-33.6797 114.374,-75.3242 v 0 c 0,-41.6445 -51.202,-75.3241 -114.374,-75.3241 h -343.055" /><path
         id="path288"
         style="fill:#292827;fill-opacity:1;fill-rule:nonzero;stroke:none;stroke-width:2.27565408"
         d="m 11646.149,1624.4177 c -63.195,0 -114.375,33.6797 -114.375,75.3242 v 0 c 0,41.4169 51.18,75.0966 114.375,75.0966 h 343.055 c 63.172,0 114.374,-33.6797 114.374,-75.0966 v 0 c 0,-41.6445 -51.202,-75.3242 -114.374,-75.3242 h -343.055" /><path
         id="path290"
         style="fill:#292827;fill-opacity:1;fill-rule:nonzero;stroke:none;stroke-width:2.27565408"
         d="m 11817.688,5746.3101 c 0,-190.4722 -153.63,-344.7616 -343.078,-344.7616 v 0 c -189.494,0 -343.078,154.2894 -343.078,344.7616 V 9080.371 c 0,190.4723 153.584,344.9892 343.078,344.9892 v 0 c 189.448,0 343.078,-154.5169 343.078,-344.9892 V 5746.3101" /><g
         transform="matrix(2.3450161,0,0,2.3450161,-1747.6462,-23958.714)"
         id="g292"><path
           id="path294"
           style="fill:#292827;fill-opacity:1;fill-rule:nonzero;stroke:none"
           d="m 5696.17,16235.8 c -26.93,0 -48.76,14.4 -48.76,32.1 v 0 c 0,17.7 21.83,32.1 48.76,32.1 h 146.3 c 26.93,0 48.77,-14.4 48.77,-32.1 v 0 c 0,-17.7 -21.84,-32.1 -48.77,-32.1 h -146.3" /></g><g
         transform="matrix(2.3278349,0,0,2.3278349,-1747.6462,-23958.714)"
         id="g296"><path
           id="path298"
           style="fill:#292827;fill-opacity:1;fill-rule:nonzero;stroke:none"
           d="m 5738.23,16235.3 c -27.13,0 -49.12,14.5 -49.12,32.4 v 0 c 0,17.8 21.99,32.3 49.12,32.3 h 147.39 c 27.12,0 49.12,-14.5 49.12,-32.3 v 0 c 0,-17.9 -22,-32.4 -49.12,-32.4 h -147.39" /></g><path
         id="path300"
         style="fill:#292827;fill-opacity:1;fill-rule:nonzero;stroke:none;stroke-width:2.27565408"
         d="m 11610.011,11419.516 c -63.172,0 -114.351,33.68 -114.351,75.324 v 0 c 0,41.645 51.179,75.324 114.351,75.324 h 343.078 c 63.149,0 114.352,-33.679 114.352,-75.324 v 0 c 0,-41.644 -51.203,-75.324 -114.352,-75.324 h -343.078" /><path
         id="path302"
         style="fill:#292827;fill-opacity:1;fill-rule:nonzero;stroke:none;stroke-width:2.27565408"
         d="m 11610.011,11139.383 c -63.172,0 -114.351,33.68 -114.351,75.324 v 0 c 0,41.417 51.179,75.097 114.351,75.097 h 343.078 c 63.149,0 114.352,-33.68 114.352,-75.097 v 0 c 0,-41.644 -51.203,-75.324 -114.352,-75.324 h -343.078" /><g
         transform="matrix(2.3760105,0,0,2.3760105,-1747.6462,-23958.714)"
         id="g304"><path
           id="path306"
           style="fill:#292827;fill-opacity:1;fill-rule:nonzero;stroke:none"
           d="m 5709.29,14751.6 c 0,-80.2 -64.66,-145.1 -144.39,-145.1 v 0 c -79.75,0 -144.39,64.9 -144.39,145.1 v 1403.2 c 0,80.2 64.64,145.2 144.39,145.2 v 0 c 79.73,0 144.39,-65 144.39,-145.2 v -1403.2" /></g><g
         transform="matrix(2.4701771,0,0,2.4701771,-1747.6462,-23958.714)"
         id="g308"><path
           id="path310"
           style="fill:#f5777a;fill-opacity:1;fill-rule:nonzero;stroke:none"
           d="m 1554.65,15961.9 0.6,338.1 -293.13,-168.5 292.53,-169.6" /></g><g
         transform="matrix(2.4557722,0,0,2.4557722,-1747.6462,-23958.714)"
         id="g312"><path
           id="path314"
           style="fill:#f5777a;fill-opacity:1;fill-rule:nonzero;stroke:none"
           d="m 1563.96,16151 h 624.26 v 149 h -624.26 v -149" /></g><path
         id="path316"
         style="fill:#3567a4;fill-opacity:1;fill-rule:nonzero;stroke:none;stroke-width:2.27565408"
         d="m 2903.5178,2950.669 -1.5019,835.1651 724.1131,-416.2172 z" /><path
         id="path318"
         style="fill:#3567a4;fill-opacity:1;fill-rule:nonzero;stroke:none;stroke-width:2.27565408"
         d="M 2903.0399,3185.2889 H 1370 v 365.9252 h 1533.0399 v -365.9252" /><g
         transform="matrix(2.6220997,0,0,2.6220997,-1747.6462,-23958.714)"
         id="g320"><path
           id="path322"
           style="fill:#9ea1a0;fill-opacity:1;fill-rule:nonzero;stroke:none"
           d="m 5234.71,16024.4 -496.92,-0.5 247.7,276.1 249.22,-275.6" /></g><g
         transform="matrix(2.5777472,0,0,2.5777472,-1747.6462,-23958.714)"
         id="g324"><path
           id="path326"
           style="fill:#9ea1a0;fill-opacity:1;fill-rule:nonzero;stroke:none"
           d="m 5182.8,16300 v -594.7 h -221.47 v 594.7 h 221.47" /></g></g></g></svg>